<svg width="48" height="40" viewBox="0 0 48 40" fill="none" xmlns="http://www.w3.org/2000/svg">
<path d="M44.9032 0H3.09677C2.27579 0.00107543 1.48874 0.327687 0.908212 0.908212C0.327687 1.48874 0.00107543 2.27579 0 3.09677V29.4194C0.00107543 30.2403 0.327687 31.0274 0.908212 31.6079C1.48874 32.1884 2.27579 32.5151 3.09677 32.5161H19.0548L18.0223 35.6129H15.4839C15.2785 35.6129 15.0816 35.6945 14.9364 35.8397C14.7912 35.9848 14.7097 36.1818 14.7097 36.3871V37.9355H7.74194C7.53661 37.9355 7.33969 38.0171 7.1945 38.1622C7.04931 38.3074 6.96774 38.5043 6.96774 38.7097C6.96774 38.915 7.04931 39.1119 7.1945 39.2571C7.33969 39.4023 7.53661 39.4839 7.74194 39.4839H41.8064C42.0118 39.4839 42.2087 39.4023 42.3539 39.2571C42.4991 39.1119 42.5806 38.915 42.5806 38.7097C42.5806 38.5043 42.4991 38.3074 42.3539 38.1622C42.2087 38.0171 42.0118 37.9355 41.8064 37.9355H33.2903V36.3871C33.2903 36.1818 33.2088 35.9848 33.0636 35.8397C32.9184 35.6945 32.7215 35.6129 32.5161 35.6129H29.9777L28.9452 32.5161H44.9032C45.7242 32.5151 46.5113 32.1884 47.0918 31.6079C47.6723 31.0274 47.9989 30.2403 48 29.4194V3.09677C47.9989 2.27579 47.6723 1.48874 47.0918 0.908212C46.5113 0.327687 45.7242 0.00107543 44.9032 0ZM31.7419 37.1613V37.9355H16.2581V37.1613H31.7419ZM19.6548 35.6129L20.6874 32.5161H27.3126L28.3452 35.6129H19.6548ZM46.4516 29.4194C46.4511 29.8298 46.2878 30.2234 45.9975 30.5136C45.7072 30.8039 45.3137 30.9672 44.9032 30.9677H3.09677C2.68628 30.9672 2.29276 30.8039 2.00249 30.5136C1.71223 30.2234 1.54892 29.8298 1.54839 29.4194V27.871H46.4516V29.4194ZM13.1284 19.3548L12.8381 26.3226H11.9361L11.6458 19.3548H13.1284ZM11.7523 17.8065L12.269 14.7097H12.5052L13.0219 17.8065H11.7523ZM12.3871 13.1613C11.5481 13.1613 10.8387 12.0977 10.8387 10.8387C10.8387 10.0442 11.6497 8.88968 12.3852 8.07581C13.0481 8.81129 13.9355 9.9871 13.9355 10.8387C13.9355 12.0977 13.2261 13.1613 12.3871 13.1613ZM20.8123 11.6129L20.9032 11.7958V12.3871H17.8065V11.7958L17.8974 11.6129H20.8123ZM18.6716 10.0645L19.3548 8.69903L20.0381 10.0645H18.6716ZM20.9032 13.9355V26.2258C20.9035 26.2582 20.9058 26.2905 20.91 26.3226H17.7997C17.8039 26.2905 17.8062 26.2582 17.8065 26.2258V13.9355H20.9032ZM27.871 10.8387H30.1935V12.3871H29.4194C29.214 12.3871 29.0171 12.4687 28.8719 12.6139C28.7267 12.759 28.6452 12.956 28.6452 13.1613C28.6452 13.3666 28.7267 13.5635 28.8719 13.7087C29.0171 13.8539 29.214 13.9355 29.4194 13.9355H30.1935V15.4839H27.871C27.6656 15.4839 27.4687 15.5654 27.3235 15.7106C27.1783 15.8558 27.0968 16.0527 27.0968 16.2581C27.0968 16.4634 27.1783 16.6603 27.3235 16.8055C27.4687 16.9507 27.6656 17.0323 27.871 17.0323H30.1935V18.5806H29.4194C29.214 18.5806 29.0171 18.6622 28.8719 18.8074C28.7267 18.9526 28.6452 19.1495 28.6452 19.3548C28.6452 19.5602 28.7267 19.7571 28.8719 19.9023C29.0171 20.0475 29.214 20.129 29.4194 20.129H30.1935V21.6774H27.871C27.6656 21.6774 27.4687 21.759 27.3235 21.9042C27.1783 22.0494 27.0968 22.2463 27.0968 22.4516C27.0968 22.6569 27.1783 22.8539 27.3235 22.9991C27.4687 23.1442 27.6656 23.2258 27.871 23.2258H30.1935V26.3226H24.7742V7.74194H30.1935V9.29032H27.871C27.6656 9.29032 27.4687 9.37189 27.3235 9.51708C27.1783 9.66227 27.0968 9.85919 27.0968 10.0645C27.0968 10.2698 27.1783 10.4668 27.3235 10.612C27.4687 10.7571 27.6656 10.8387 27.871 10.8387ZM37.1613 20.129V26.2258C37.1616 26.2582 37.1638 26.2905 37.1681 26.3226H34.0577C34.062 26.2905 34.0642 26.2582 34.0645 26.2258V20.129H37.1613ZM34.0645 18.5806V17.9894L35.6129 14.8926L37.1613 17.9894V18.5806H34.0645ZM46.4516 26.3226H38.7029C38.7071 26.2905 38.7094 26.2582 38.7097 26.2258V17.8065C38.7096 17.6863 38.6817 17.5677 38.6284 17.46L36.3058 12.8148C36.2414 12.6863 36.1424 12.5782 36.0201 12.5026C35.8977 12.4271 35.7567 12.3871 35.6129 12.3871C35.4691 12.3871 35.3281 12.4271 35.2057 12.5026C35.0834 12.5782 34.9844 12.6863 34.92 12.8148L32.5974 17.46C32.5441 17.5677 32.5162 17.6863 32.5161 17.8065V26.2258C32.5164 26.2582 32.5187 26.2905 32.5229 26.3226H31.7419V6.96774C31.7419 6.76241 31.6604 6.56549 31.5152 6.4203C31.37 6.27512 31.1731 6.19355 30.9677 6.19355H24C23.7947 6.19355 23.5977 6.27512 23.4526 6.4203C23.3074 6.56549 23.2258 6.76241 23.2258 6.96774V26.3226H22.4448C22.4491 26.2905 22.4513 26.2582 22.4516 26.2258V11.6129C22.4515 11.4927 22.4237 11.3742 22.3703 11.2665L20.0477 6.62129C19.9833 6.49272 19.8844 6.38462 19.762 6.30907C19.6396 6.23353 19.4986 6.19352 19.3548 6.19352C19.211 6.19352 19.0701 6.23353 18.9477 6.30907C18.8253 6.38462 18.7264 6.49272 18.6619 6.62129L16.3394 11.2665C16.286 11.3742 16.2582 11.4927 16.2581 11.6129V26.2258C16.2584 26.2582 16.2606 26.2905 16.2648 26.3226H14.3874L14.7087 18.6126C14.7097 18.5952 14.7087 18.5777 14.7087 18.5594V18.5361C14.7069 18.5089 14.7037 18.4817 14.699 18.4548V18.4529L13.9829 14.1552C14.8819 13.4768 15.4839 12.2439 15.4839 10.8387C15.4839 8.84903 13.1777 6.64548 12.9145 6.40065C12.7711 6.26768 12.5827 6.1938 12.3871 6.1938C12.1915 6.1938 12.0031 6.26768 11.8597 6.40065C11.5965 6.64548 9.29032 8.84903 9.29032 10.8387C9.29032 12.2439 9.89226 13.4768 10.7913 14.1552L10.0752 18.4529V18.4548C10.0705 18.4817 10.0673 18.5089 10.0655 18.5361V18.5594C10.0655 18.5777 10.0645 18.5952 10.0655 18.6126L10.3868 26.3226H1.54839V3.09677C1.54892 2.68628 1.71223 2.29276 2.00249 2.00249C2.29276 1.71223 2.68628 1.54892 3.09677 1.54839H44.9032C45.3137 1.54892 45.7072 1.71223 45.9975 2.00249C46.2878 2.29276 46.4511 2.68628 46.4516 3.09677V26.3226Z" fill="black"/>
<path d="M8.51616 28.645H3.871C3.66567 28.645 3.46875 28.7266 3.32356 28.8718C3.17837 29.017 3.0968 29.2139 3.0968 29.4192C3.0968 29.6245 3.17837 29.8215 3.32356 29.9667C3.46875 30.1118 3.66567 30.1934 3.871 30.1934H8.51616C8.72149 30.1934 8.9184 30.1118 9.06359 29.9667C9.20878 29.8215 9.29035 29.6245 9.29035 29.4192C9.29035 29.2139 9.20878 29.017 9.06359 28.8718C8.9184 28.7266 8.72149 28.645 8.51616 28.645Z" fill="black"/>
<path d="M11.6129 28.645H10.8387C10.6334 28.645 10.4365 28.7266 10.2913 28.8718C10.1461 29.017 10.0645 29.2139 10.0645 29.4192C10.0645 29.6245 10.1461 29.8215 10.2913 29.9667C10.4365 30.1118 10.6334 30.1934 10.8387 30.1934H11.6129C11.8182 30.1934 12.0151 30.1118 12.1603 29.9667C12.3055 29.8215 12.3871 29.6245 12.3871 29.4192C12.3871 29.2139 12.3055 29.017 12.1603 28.8718C12.0151 28.7266 11.8182 28.645 11.6129 28.645Z" fill="black"/>
<path d="M19.3549 14.7096C19.1496 14.7096 18.9526 14.7912 18.8074 14.9364C18.6623 15.0815 18.5807 15.2785 18.5807 15.4838V23.9999C18.5807 24.2052 18.6623 24.4022 18.8074 24.5474C18.9526 24.6925 19.1496 24.7741 19.3549 24.7741C19.5602 24.7741 19.7571 24.6925 19.9023 24.5474C20.0475 24.4022 20.1291 24.2052 20.1291 23.9999V15.4838C20.1291 15.2785 20.0475 15.0815 19.9023 14.9364C19.7571 14.7912 19.5602 14.7096 19.3549 14.7096Z" fill="black"/>
<path d="M35.6128 20.9032C35.4075 20.9032 35.2106 20.9848 35.0654 21.13C34.9202 21.2751 34.8386 21.4721 34.8386 21.6774V24C34.8386 24.2053 34.9202 24.4022 35.0654 24.5474C35.2106 24.6926 35.4075 24.7742 35.6128 24.7742C35.8181 24.7742 36.0151 24.6926 36.1603 24.5474C36.3054 24.4022 36.387 24.2053 36.387 24V21.6774C36.387 21.4721 36.3054 21.2751 36.1603 21.13C36.0151 20.9848 35.8181 20.9032 35.6128 20.9032Z" fill="black"/>
<path d="M3.871 4.64519H10.0645C10.2699 4.64519 10.4668 4.56362 10.612 4.41843C10.7572 4.27324 10.8387 4.07632 10.8387 3.871C10.8387 3.66567 10.7572 3.46875 10.612 3.32356C10.4668 3.17837 10.2699 3.0968 10.0645 3.0968H3.871C3.66567 3.0968 3.46875 3.17837 3.32356 3.32356C3.17837 3.46875 3.0968 3.66567 3.0968 3.871C3.0968 4.07632 3.17837 4.27324 3.32356 4.41843C3.46875 4.56362 3.66567 4.64519 3.871 4.64519Z" fill="black"/>
<path d="M3.871 6.96782H5.41938C5.62471 6.96782 5.82163 6.88625 5.96682 6.74106C6.11201 6.59588 6.19358 6.39896 6.19358 6.19363C6.19358 5.9883 6.11201 5.79138 5.96682 5.64619C5.82163 5.501 5.62471 5.41943 5.41938 5.41943H3.871C3.66567 5.41943 3.46875 5.501 3.32356 5.64619C3.17837 5.79138 3.0968 5.9883 3.0968 6.19363C3.0968 6.39896 3.17837 6.59588 3.32356 6.74106C3.46875 6.88625 3.66567 6.96782 3.871 6.96782Z" fill="black"/>
<path d="M41.0323 24.7743H44.129C44.3344 24.7743 44.5313 24.6928 44.6765 24.5476C44.8217 24.4024 44.9032 24.2055 44.9032 24.0001C44.9032 23.7948 44.8217 23.5979 44.6765 23.4527C44.5313 23.3075 44.3344 23.226 44.129 23.226H41.0323C40.8269 23.226 40.63 23.3075 40.4848 23.4527C40.3396 23.5979 40.2581 23.7948 40.2581 24.0001C40.2581 24.2055 40.3396 24.4024 40.4848 24.5476C40.63 24.6928 40.8269 24.7743 41.0323 24.7743Z" fill="black"/>
<path d="M43.3549 22.4516H44.1291C44.3344 22.4516 44.5313 22.37 44.6765 22.2248C44.8217 22.0796 44.9033 21.8827 44.9033 21.6774C44.9033 21.4721 44.8217 21.2751 44.6765 21.13C44.5313 20.9848 44.3344 20.9032 44.1291 20.9032H43.3549C43.1496 20.9032 42.9526 20.9848 42.8074 21.13C42.6623 21.2751 42.5807 21.4721 42.5807 21.6774C42.5807 21.8827 42.6623 22.0796 42.8074 22.2248C42.9526 22.37 43.1496 22.4516 43.3549 22.4516Z" fill="black"/>
</svg>
