<svg width="44" height="44" viewBox="0 0 44 44" fill="none" xmlns="http://www.w3.org/2000/svg">
<g clip-path="url(#clip0_44_2)">
<path d="M39.6 6.6001H19.8V8.06676H39.6V6.6001Z" fill="black"/>
<path d="M32.2667 9.53333H19.8V11H32.2667V9.53333Z" fill="black"/>
<path d="M32.2667 12.4667H19.8V13.9333H32.2667V12.4667Z" fill="black"/>
<path d="M39.6 3.66663H25.6667V5.13329H39.6V3.66663Z" fill="black"/>
<path d="M24.2 3.66663H22.7333V5.13329H24.2V3.66663Z" fill="black"/>
<path d="M22.7333 29.3334H21.2667V30.8H22.7333V29.3334Z" fill="black"/>
<path d="M12.2518 4.91852L11.2149 3.88159L9.74821 5.34826C9.46194 5.63462 9.46194 6.09882 9.74821 6.38519L11.2149 7.85186L12.2518 6.81492L11.3036 5.86672L12.2518 4.91852Z" fill="black"/>
<path d="M18.1185 5.34826L16.6518 3.88159L15.6149 4.91852L16.5631 5.86672L15.6149 6.81492L16.6518 7.85186L18.1185 6.38519C18.4048 6.09882 18.4048 5.63462 18.1185 5.34826Z" fill="black"/>
<path d="M13.9715 3.43394L12.5034 7.83386L13.894 8.29783L15.362 3.89791L13.9715 3.43394Z" fill="black"/>
<path d="M38.1333 22.7332V16.8666H36.6667V22.7332H35.2V15.3999H33.7333V22.7332H32.2667V19.0666H30.8V22.7332H29.3333V18.3332H27.8667V22.7332H26.4V19.7999H24.9333V22.7332H23.4667V24.1999H39.6V22.7332H38.1333Z" fill="black"/>
<path d="M38.8667 0H5.13334C2.70426 0.00238333 0.735721 1.97092 0.733337 4.4V18.7924V18.799V27.1333V29.3333C0.735721 31.7624 2.70426 33.7309 5.13334 33.7333H14.2135L11.2801 39.6H7.33334C6.1183 39.6 5.13334 40.585 5.13334 41.8C5.13334 43.015 6.1183 44 7.33334 44H36.6667C37.8817 44 38.8667 43.015 38.8667 41.8C38.8667 40.585 37.8817 39.6 36.6667 39.6H32.7199L29.7865 33.7333H38.8667C41.2957 33.7309 43.2643 31.7624 43.2667 29.3333V4.4C43.2643 1.97092 41.2957 0.00238333 38.8667 0ZM2.2 10.318L3.86687 12.3024C4.0062 12.4684 4.2119 12.5642 4.4286 12.5642H6.67334C6.89004 12.5642 7.09574 12.4684 7.23507 12.3024L8.90267 10.318L10.5483 10.8526L10.7301 13.4361C10.7452 13.6522 10.855 13.8506 11.0301 13.9781L12.8465 15.2981C13.0223 15.4249 13.2448 15.4681 13.4552 15.4161L15.9727 14.7906L16.9906 16.1905L15.6185 18.3905C15.5049 18.575 15.4786 18.8002 15.5467 19.0058L16.2411 21.1405C16.308 21.3464 16.4622 21.5123 16.6628 21.5937L19.0667 22.5683V24.299L16.6613 25.2736C16.4603 25.3546 16.3058 25.521 16.2397 25.7275L16.0197 26.4H11.7949C13.4383 22.9592 11.9812 18.8376 8.5404 17.1942C6.51943 16.2289 4.15571 16.3039 2.2 17.3954V10.318ZM2.2 19.14C4.57197 17.2895 7.99499 17.7123 9.84537 20.0844C11.2741 21.9157 11.3844 24.4515 10.12 26.4H2.2V19.14ZM36.6667 41.0667C37.0717 41.0667 37.4 41.395 37.4 41.8C37.4 42.205 37.0717 42.5333 36.6667 42.5333H7.33334C6.92835 42.5333 6.6 42.205 6.6 41.8C6.6 41.395 6.92835 41.0667 7.33334 41.0667H36.6667ZM31.0801 39.6H12.9199L15.8532 33.7333H28.1468L31.0801 39.6ZM41.8 29.3333C41.8 30.9534 40.4867 32.2667 38.8667 32.2667H5.13334C3.51331 32.2667 2.2 30.9534 2.2 29.3333V27.8667H10.5028H10.5094H41.8V29.3333ZM41.8 26.4H17.787L20.0757 25.4723C20.3522 25.3601 20.5332 25.0916 20.5333 24.7933V22.0733C20.5334 21.7747 20.3525 21.5058 20.0757 21.3935L17.5267 20.3625L17.0441 18.8775L18.4976 16.5455C18.6553 16.2921 18.6436 15.9685 18.4683 15.7271L16.8696 13.5271C16.6941 13.2853 16.3895 13.1742 16.0996 13.2462L13.4332 13.9062L12.1733 12.991L11.9805 10.2557C11.9595 9.95747 11.7596 9.70182 11.4752 9.6096L8.8902 8.7692C8.60576 8.67863 8.29483 8.76801 8.10187 8.9958L6.33674 11.0968H4.77254L3.00667 8.9958C2.81362 8.76773 2.50223 8.67827 2.2176 8.7692L2.2 8.7758V4.4C2.2 2.77997 3.51331 1.46667 5.13334 1.46667H38.8667C40.4867 1.46667 41.8 2.77997 41.8 4.4V26.4Z" fill="black"/>
</g>
<defs>
<clipPath id="clip0_44_2">
<rect width="44" height="44" fill="white"/>
</clipPath>
</defs>
</svg>
