<svg width="58" height="58" viewBox="0 0 58 58" fill="none" xmlns="http://www.w3.org/2000/svg">
<path d="M0 0H58V58H0V0Z" fill="#F7DF1E"/>
<path d="M15.2503 48.4691L19.6888 45.783C20.5451 47.3012 21.3241 48.5858 23.1925 48.5858C24.9835 48.5858 26.1127 47.8852 26.1127 45.1601V26.6277H31.5632V45.2371C31.5632 50.8825 28.2541 53.452 23.4262 53.452C19.0659 53.452 16.5349 51.1938 15.2502 48.4687" fill="black"/>
<path d="M34.5238 47.8849L38.9618 45.3153C40.1301 47.2233 41.6485 48.6247 44.3347 48.6247C46.5931 48.6247 48.0333 47.4956 48.0333 45.9382C48.0333 44.0694 46.5539 43.4075 44.0621 42.3177L42.6999 41.7333C38.7674 40.0595 36.1588 37.9572 36.1588 33.5187C36.1588 29.4307 39.2734 26.3159 44.1402 26.3159C47.6053 26.3159 50.097 27.523 51.8877 30.6766L47.644 33.4018C46.7095 31.7278 45.6976 31.066 44.1403 31.066C42.544 31.066 41.5317 32.0783 41.5317 33.4018C41.5317 35.037 42.544 35.699 44.8798 36.7114L46.2423 37.2953C50.8754 39.281 53.484 41.3053 53.484 45.8603C53.484 50.7662 49.6297 53.4524 44.4517 53.4524C39.3904 53.4524 36.1199 51.0386 34.5239 47.8849" fill="black"/>
</svg>
