<svg width="72" height="65" viewBox="0 0 72 65" fill="none" xmlns="http://www.w3.org/2000/svg">
<path d="M0 32.2077C0 37.6379 5.27695 42.7071 13.5965 45.5644C11.9352 53.9686 13.2988 60.7423 17.8533 63.3817C22.5349 66.0945 29.5094 64.2167 36.1291 58.4023C42.5817 63.9819 49.1033 66.1778 53.6536 63.5309C58.3307 60.8102 59.7533 53.5771 58.046 44.9107C66.7113 42.0319 71.5584 37.7094 71.5584 32.2077C71.5584 26.9035 66.2717 22.3146 58.0643 19.4756C59.9023 10.4509 58.3449 3.84162 53.6018 1.0932C49.029 -1.55645 42.4317 0.752992 35.8841 6.47874C29.0725 0.401311 22.5403 -1.4542 17.8018 1.30223C13.2334 3.95941 11.9298 10.8562 13.5965 19.4159C5.55787 22.2322 0 26.9247 0 32.2077Z" fill="white"/>
<path d="M56.326 22.2949C55.6668 22.0669 54.9837 21.8511 54.2803 21.6471C54.3959 21.173 54.502 20.705 54.5964 20.245C56.1449 12.6917 55.1324 6.6066 51.6749 4.60313C48.3597 2.68208 42.9378 4.68509 37.4619 9.47357C36.9354 9.93403 36.4073 10.4215 35.8795 10.9325C35.5278 10.5944 35.1767 10.2677 34.8265 9.95528C29.0877 4.83512 23.3353 2.67742 19.8813 4.68668C16.5692 6.6133 15.5883 12.3338 16.9823 19.4922C17.1169 20.1837 17.2742 20.8897 17.4522 21.6077C16.638 21.8399 15.8521 22.0874 15.1001 22.3508C8.37191 24.7079 4.07498 28.402 4.07498 32.2338C4.07498 36.1912 8.68773 40.1606 15.6957 42.5675C16.2487 42.7574 16.8225 42.937 17.4139 43.1075C17.222 43.884 17.055 44.6448 16.9148 45.387C15.5857 52.4211 16.6237 58.0065 19.927 59.921C23.339 61.8981 29.0653 59.8659 34.6412 54.9683C35.0819 54.5811 35.5242 54.1705 35.9673 53.7402C36.5416 54.2959 37.115 54.8218 37.6853 55.3152C43.0863 59.9853 48.4206 61.8711 51.7209 59.9513C55.1295 57.9686 56.2373 51.9685 54.7991 44.6685C54.6892 44.111 54.5614 43.5414 54.4179 42.9617C54.82 42.8422 55.2148 42.7189 55.5997 42.5907C62.8851 40.1652 67.6252 36.2441 67.6252 32.2338C67.6252 28.3881 63.1897 24.6691 56.326 22.2949Z" fill="#53C1DE"/>
<path d="M54.7459 40.0012C54.3984 40.1168 54.0419 40.2286 53.6785 40.3369C52.8743 37.7784 51.7888 35.0578 50.4604 32.247C51.728 29.5031 52.7715 26.8173 53.5533 24.2754C54.2034 24.4645 54.8344 24.6638 55.4424 24.8742C61.3232 26.9085 64.9104 29.9162 64.9104 32.2337C64.9104 34.7023 61.0363 37.9068 54.7459 40.0012ZM52.1358 45.1982C52.7718 48.4262 52.8626 51.3447 52.4414 53.6262C52.0629 55.6762 51.3017 57.043 50.3605 57.5905C48.3578 58.7553 44.0749 57.2412 39.4559 53.2472C38.9264 52.7894 38.393 52.3005 37.858 51.7831C39.6487 49.8152 41.4383 47.5275 43.185 44.9867C46.2572 44.7128 49.1597 44.2649 51.7918 43.6535C51.9215 44.179 52.0366 44.6944 52.1358 45.1982ZM25.7407 57.3892C23.784 58.0835 22.2256 58.1034 21.2835 57.5576C19.2789 56.3958 18.4456 51.9113 19.5823 45.8957C19.7125 45.2068 19.8675 44.4991 20.0461 43.7757C22.6494 44.3542 25.5307 44.7704 28.6102 45.0213C30.3686 47.5075 32.21 49.7927 34.0656 51.7936C33.6602 52.1869 33.2563 52.5613 32.8547 52.9142C30.3891 55.0798 27.9183 56.6163 25.7407 57.3892ZM16.5737 39.9861C13.4749 38.9219 10.9158 37.5387 9.16172 36.0293C7.58552 34.673 6.78973 33.3264 6.78973 32.2337C6.78973 29.9085 10.2397 26.9426 15.9937 24.9267C16.6919 24.6821 17.4228 24.4516 18.1812 24.2351C18.9765 26.8344 20.0196 29.552 21.2785 32.3001C20.0033 35.089 18.9453 37.8499 18.1423 40.4797C17.6016 40.3235 17.0778 40.1591 16.5737 39.9861ZM19.6466 18.9683C18.4523 12.8352 19.2454 8.20854 21.2414 7.04757C23.3675 5.81078 28.0688 7.57418 33.0239 11.9952C33.3406 12.2778 33.6586 12.5735 33.9775 12.8795C32.131 14.8717 30.3065 17.1398 28.5637 19.6113C25.5749 19.8897 22.7139 20.3368 20.0834 20.9356C19.9181 20.2672 19.7716 19.6104 19.6466 18.9683ZM47.0593 25.7699C46.4305 24.6785 45.7849 23.6129 45.1268 22.5764C47.1544 22.8339 49.0971 23.1758 50.9215 23.5942C50.3738 25.3581 49.6911 27.2023 48.8875 29.0929C48.3111 27.9932 47.7013 26.8844 47.0593 25.7699ZM35.8804 14.8291C37.1327 16.1923 38.3867 17.7142 39.6201 19.3656C38.3772 19.3066 37.1189 19.2759 35.8501 19.2759C34.5934 19.2759 33.3443 19.3059 32.1091 19.3639C33.3438 17.7279 34.6087 16.208 35.8804 14.8291ZM24.63 25.7888C24.0019 26.8833 23.4035 27.986 22.8361 29.0909C22.0455 27.2069 21.3691 25.3542 20.8167 23.5654C22.6298 23.1577 24.5634 22.8243 26.5781 22.5716C25.9107 23.6177 25.2599 24.6911 24.63 25.7886V25.7888ZM26.6362 42.0904C24.5546 41.857 22.592 41.5408 20.7792 41.1444C21.3405 39.3236 22.0318 37.4314 22.8391 35.5068C23.408 36.6108 24.0088 37.7141 24.6408 38.8109H24.6409C25.2846 39.9284 25.9516 41.023 26.6362 42.0904ZM35.9556 49.8307C34.6688 48.4356 33.3854 46.8925 32.1319 45.2327C33.3487 45.2806 34.5893 45.3052 35.8501 45.3052C37.1455 45.3052 38.426 45.2759 39.6863 45.2195C38.4488 46.9092 37.1993 48.4547 35.9556 49.8307ZM48.9134 35.4087C49.7628 37.3541 50.4789 39.2364 51.0474 41.0262C49.2048 41.4485 47.2154 41.7887 45.1193 42.0415C45.779 40.991 46.4302 39.9071 47.0701 38.7922C47.7175 37.6642 48.3322 36.5345 48.9134 35.4087ZM44.7185 37.4293C43.7251 39.1601 42.7052 40.8124 41.6699 42.3719C39.7841 42.5074 37.8358 42.5772 35.8501 42.5772C33.8725 42.5772 31.9488 42.5155 30.0964 42.3947C29.0192 40.8146 27.9772 39.1575 26.9901 37.4442H26.9903C26.0059 35.7356 25.0998 34.0126 24.2788 32.2992C25.0996 30.5818 26.0033 28.8568 26.9821 27.1513L26.9819 27.1516C27.9633 25.4415 28.9962 23.7925 30.0633 22.2223C31.9533 22.0788 33.8914 22.0038 35.85 22.0038H35.8501C37.8176 22.0038 39.7582 22.0793 41.6476 22.2241C42.6984 23.7828 43.7243 25.4265 44.7096 27.1368C45.706 28.8664 46.6214 30.5799 47.4492 32.2604C46.6239 33.9698 45.7106 35.7006 44.7185 37.4293ZM50.3189 6.96641C52.447 8.19956 53.2746 13.1729 51.9375 19.6944C51.8522 20.1105 51.7562 20.5344 51.6519 20.9639C49.0153 20.3526 46.1523 19.8977 43.1548 19.6152C41.4086 17.1165 39.599 14.8449 37.7826 12.8782C38.271 12.4062 38.7586 11.9561 39.2443 11.5313C43.936 7.42857 48.321 5.80873 50.3189 6.96641Z" fill="white"/>
<path d="M35.8501 26.5315C38.9842 26.5315 41.5249 29.0844 41.5249 32.2337C41.5249 35.3829 38.9842 37.936 35.8501 37.936C32.716 37.936 30.1753 35.3829 30.1753 32.2337C30.1753 29.0844 32.716 26.5315 35.8501 26.5315Z" fill="#53C1DE"/>
</svg>
