<svg width="38" height="49" viewBox="0 0 38 49" fill="none" xmlns="http://www.w3.org/2000/svg">
<path d="M32.6439 32.0126L29.8446 31.1682L23.7543 27.0816V26.1452C25.5176 24.7789 26.7285 22.6904 26.9535 20.2964C27.8379 20.1501 28.5154 19.3607 28.5154 18.4117V15.8368C28.5154 15.8268 28.5144 15.8171 28.5139 15.8071V12.5454C28.8663 12.2862 29.0898 11.864 29.0898 11.3905V8.40553L33.2928 7.67005C33.9836 7.54918 34.4803 6.98558 34.5291 6.26752C34.5778 5.54946 34.162 4.9205 33.4943 4.70239L19.3253 0.0724712C19.0296 -0.024189 18.7174 -0.0240933 18.4219 0.0723755L4.25265 4.70239C3.58499 4.9205 3.16914 5.54946 3.21786 6.26743C3.24879 6.72364 3.461 7.11698 3.78854 7.37462V11.2781H3.75389C2.95599 11.2781 2.30687 11.9449 2.30687 12.7646V14.7022L1.37277 20.3345C1.21133 21.3087 1.94169 22.2004 2.90587 22.2004H6.06849C7.03053 22.2004 7.7634 21.3108 7.60158 20.3344L6.66749 14.7022V12.7646C6.66749 11.9449 6.01837 11.2781 5.22047 11.2781H5.18591V7.79801L8.66014 8.40591V11.3905C8.66014 11.862 8.88269 12.2835 9.23334 12.5431L9.23464 15.8371V18.4117C9.23464 19.3608 9.91218 20.1501 10.7965 20.2964C11.0215 22.689 12.2311 24.7766 13.9927 26.143V27.0838L7.9037 31.1697L5.10663 32.0131C2.11356 32.9156 0.000186213 35.7385 0.000186213 39.02V41.1591C0.000186213 41.5555 0.312917 41.8769 0.69887 41.8769C1.08482 41.8769 1.39755 41.5556 1.39755 41.1591V39.02C1.39755 36.4337 3.08455 34.1187 5.50022 33.3904L8.10641 32.6045L18.5183 38.9605C18.7297 39.0895 19.0093 39.0964 19.2321 38.9605L29.6446 32.6041L32.2505 33.3901C34.6658 34.1186 36.3528 36.4334 36.3528 39.0195V45.952C36.3528 46.8412 35.6486 47.5646 34.7831 47.5646H31.7036V44.4708C31.7036 44.0744 31.3908 43.753 31.0049 43.753C30.619 43.753 30.3062 44.0743 30.3062 44.4708V47.5646H7.44079V44.4708C7.44079 44.0744 7.12806 43.753 6.74211 43.753C6.35616 43.753 6.04343 44.0743 6.04343 44.4708V47.5646H2.96708C2.10155 47.5646 1.39737 46.8412 1.39737 45.952V44.5144C1.39737 44.118 1.08464 43.7966 0.698684 43.7966C0.312731 43.7966 0 44.1179 0 44.5144V45.952C0 47.6327 1.33095 49 2.96698 49H34.7829C36.4189 49 37.7499 47.6327 37.7499 45.952V39.0194C37.7499 35.8153 35.7086 32.937 32.6439 32.0126ZM6.06839 20.7648H2.90587C2.80815 20.7648 2.73362 20.6751 2.7502 20.5755L3.59515 15.4807H5.37912L6.22406 20.5754C6.24055 20.6749 6.16658 20.7648 6.06839 20.7648ZM5.27012 12.7646V14.0452H3.70405V12.7646C3.70405 12.7364 3.72631 12.7135 3.75379 12.7135H5.22028C5.24786 12.7134 5.27012 12.7364 5.27012 12.7646ZM16.3762 35.7136L16.6543 36.1527L9.52129 31.7985L14.0489 28.7604C14.2542 31.2353 15.0482 33.6169 16.3762 35.7136ZM16.3714 32.6152C18.0159 32.8553 19.7332 32.8555 21.3786 32.6152C21.0607 33.419 20.6688 34.1945 20.2026 34.9309L18.875 37.0272L17.5474 34.9309C17.0811 34.1945 16.6893 33.419 16.3714 32.6152ZM21.3738 35.7136C22.7017 33.6169 23.4958 31.2353 23.701 28.7604L28.2286 31.7984L21.0957 36.1527L21.3738 35.7136ZM25.4607 12.8127H27.1167V15.1189H26.2947C25.8348 15.1189 25.4606 14.7346 25.4606 14.2621V12.8127H25.4607ZM4.67615 6.07037L18.8455 1.44026C18.8637 1.43433 18.8833 1.43423 18.9017 1.44036L33.071 6.07037C33.1003 6.07995 33.1404 6.09296 33.1353 6.1677C33.1302 6.24235 33.0887 6.24953 33.0584 6.25489L28.3736 7.07459L26.6148 6.85112C26.2321 6.80241 25.8832 7.08205 25.8357 7.47539C25.7884 7.86883 26.0605 8.22714 26.4434 8.27576L27.6927 8.43453V11.3772L10.0574 11.3765V8.43443L17.2871 7.5154C18.3402 7.3817 19.4078 7.3817 20.4601 7.5154L23.1964 7.86309C23.5793 7.9118 23.9281 7.63225 23.9756 7.23891C24.023 6.84547 23.7509 6.48716 23.368 6.43845L20.6317 6.09076C19.4656 5.94252 18.2825 5.94252 17.1156 6.09076L9.37475 7.07478L4.68863 6.25489C4.65826 6.24953 4.61681 6.24235 4.61168 6.1677C4.60665 6.09296 4.6468 6.07985 4.67615 6.07037ZM10.6315 15.1189L10.6306 12.8127H12.2893V14.2622C12.2893 14.7346 11.9152 15.119 11.4552 15.119H10.6315V15.1189ZM12.1693 19.9274C12.1333 19.343 11.6605 18.8851 11.0929 18.8851C10.8386 18.8851 10.6318 18.6727 10.6318 18.4116V16.5545H11.4552C12.6855 16.5545 13.6866 15.5261 13.6866 14.2622V12.8127H24.0633V14.2622C24.0633 15.5261 25.0644 16.5545 26.2947 16.5545H27.1181V18.4116C27.1181 18.6727 26.9112 18.8851 26.657 18.8851C26.0894 18.8851 25.6165 19.343 25.5806 19.9275C25.358 23.5517 22.4126 26.3907 18.8749 26.3907C15.3372 26.3907 12.3919 23.5517 12.1693 19.9274ZM18.875 27.8262C20.1176 27.8262 21.2987 27.5343 22.357 27.0153V27.4702C22.357 28.6974 22.1959 29.9079 21.8856 31.0755C19.9868 31.4474 17.8402 31.4624 15.8644 31.0755C15.5541 29.908 15.3929 28.6975 15.3929 27.4702C15.3929 27.4549 15.3909 27.4401 15.39 27.4251C15.3898 27.4221 15.39 27.4191 15.3899 27.4162V27.0138C16.449 27.5337 17.6311 27.8262 18.875 27.8262Z" fill="#1B1B1B"/>
</svg>
