<svg width="48" height="68" viewBox="0 0 48 68" fill="none" xmlns="http://www.w3.org/2000/svg">
<path d="M23.9706 67.8259L4.36835 62.4446L0 13.9932H48L43.627 62.4373L23.9706 67.8259Z" fill="#4353AD"/>
<path d="M39.8833 59.3523L43.6198 17.9548H23.9999V63.7068L39.8833 59.3523Z" fill="#485FB5"/>
<path d="M23.9999 51.3578L23.9736 51.3645L17.2814 49.5775L16.8535 44.8383H10.8213L11.6631 54.1687L23.9723 57.5479L23.9999 57.5403V51.3578ZM8.93207 23.8973L9.47829 29.8395H23.9999V23.8973H8.93207ZM10.0143 35.9246L10.5528 41.867H23.9999V35.9246H10.0143Z" fill="#EDEDED"/>
<path d="M28.7638 0.825993H36.0419V3.4431H31.8076V3.96677H36.0419V9.98608H28.7638V7.23785H32.9984V6.71459H28.764V0.825993H28.7638ZM20.0301 0.825993H27.308V3.4431H23.0737V3.96677H27.308V9.98608H20.0303V7.23785H24.2648V6.71459H20.03V0.825993H20.0301ZM11.2966 0.825993H18.5744V3.83565H14.3402V6.84572H18.5748V9.85537H11.2966V0.825993Z" fill="black"/>
<path d="M37.9473 35.9248L39.0319 23.8975H23.9793V29.8398H32.4466L31.8999 35.9248H23.9793V41.8672H31.3789L30.6809 49.5743L23.9791 51.3629V57.5452L36.2979 54.1689L36.3882 53.1652L37.8006 37.5205L37.9473 35.9248Z" fill="white"/>
</svg>
