<svg width="48" height="67" viewBox="0 0 48 67" fill="none" xmlns="http://www.w3.org/2000/svg">
<path d="M4.36822 61.6186L0 13.167H48L43.627 61.611L23.9706 67L4.36822 61.6186Z" fill="#E53D20"/>
<path d="M24 62.8809L39.8834 58.5263L43.6204 17.1286H24V62.8809Z" fill="#F15123"/>
<path d="M23.9999 35.0988H16.0483L15.4991 29.0136H23.9999V23.0712H23.9791H8.93188L9.07577 24.6654L10.5527 41.041H23.9999V35.0988Z" fill="#EDEDED"/>
<path d="M24 50.5315L23.9737 50.5385L17.2814 48.7514L16.8534 44.0122H13.6015H10.8212L11.6632 53.3426L23.9724 56.7217L24 56.7141V50.5315Z" fill="#EDEDED"/>
<path d="M4.46582 -1.62125e-05H7.51963V2.98357H10.313V-1.62125e-05H13.367V9.03503H10.3131V6.00963H7.51976V9.03503H4.46604V-1.62125e-05H4.46582Z" fill="black"/>
<path d="M17.3828 2.99616H14.6944V-1.62125e-05H23.1263V2.99616H20.4367V9.03503H17.383V2.99616H17.3828Z" fill="black"/>
<path d="M24.4645 -1.62125e-05H27.6488L29.6075 3.17461L31.5642 -1.62125e-05H34.7497V9.03503H31.7085V4.55676L29.6075 7.76926H29.555L27.4526 4.55676V9.03503H24.4645V-1.62125e-05Z" fill="black"/>
<path d="M36.2695 -1.62125e-05H39.3242V6.0486H43.6186V9.03503H36.2695V-1.62125e-05Z" fill="black"/>
<path d="M23.9792 35.0986V41.0408H31.3787L30.6813 48.7476L23.9792 50.5365V56.7188L36.2982 53.3425L36.3885 52.3386L37.8007 36.6942L37.9473 35.0986H36.328H23.9792Z" fill="white"/>
<path d="M23.9792 23.0713V29.0137H38.4748H38.494L38.6146 27.6779L38.8884 24.6655L39.0321 23.0713H23.9792Z" fill="white"/>
</svg>
